<?xml version="1.0" standalone="no"?><!DOCTYPE svg PUBLIC "-//W3C//DTD SVG 1.1//EN" "http://www.w3.org/Graphics/SVG/1.1/DTD/svg11.dtd"><svg width="16" height="16" viewBox="0 0 16 16" version="1.1" xmlns="http://www.w3.org/2000/svg" xmlns:xlink="http://www.w3.org/1999/xlink"><defs><style type="text/css"><![CDATA[
@font-face { font-family: yourDictFontAwesome; src: url("chrome-extension://dmckmhkomggmpalekfadjibdcknieljf/lib/fontawesome-webfont.ttf") format("truetype"); font-weight: normal; font-style: normal; }

]]></style></defs><g class="transform-group"><g transform="scale(0.015625, 0.015625)"><path d="M497.240175 286.322473c0-17.967818 14.700833-32.668651 32.668851-32.668651l0 0c17.967618 0 32.668651 14.700833 32.668651 32.668651l0 495.48606c0 17.967818-14.700833 32.668851-32.668651 32.668851l0 0c-17.967818 0-32.668851-14.700833-32.668851-32.668851L497.240175 286.322473zM343.436054 286.322473c0-17.967818 14.700833-32.668651 32.668651-32.668651l0 0c17.967818 0 32.668651 14.700833 32.668651 32.668651l0 495.48606c0 17.967818-14.700833 32.668851-32.668651 32.668851l0 0c-17.967818 0-32.668651-14.700833-32.668651-32.668851L343.436054 286.322473zM651.077074 286.322473c0-17.967818 14.700833-32.668651 32.668851-32.668651l0 0c17.967618 0 32.668651 14.700833 32.668651 32.668651l0 495.48606c0 17.967818-14.700833 32.668851-32.668651 32.668851l0 0c-17.967618 0-32.668851-14.700833-32.668851-32.668851L651.077074 286.322473zM921.933433 125.690582l-128.58402 0-46.977349 0L746.372064 84.625824c0-31.982516-28.683153-56.941594-65.337501-56.941594L378.849044 27.68423c-36.654148 0-65.337501 25.024234-65.337501 56.941594l0 41.064558-46.977749 0L132.461695 125.690382c-18.033174 0-32.668651 14.602899-32.668651 32.668651s14.635477 32.668651 32.668651 32.668651l68.734998 0 0 689.015448c0 35.151367 29.303732 63.736587 65.337501 63.736587l526.782442 0c36.033769 0 65.337301-28.585019 65.337301-63.736587L858.653937 191.027683l63.279297 0c18.033174 0 32.668851-14.602899 32.668851-32.668651S939.966407 125.690582 921.933433 125.690582zM378.816267 93.021731 681.001785 93.021731l0 32.668651L378.816267 125.690382 378.816267 93.021731zM758.949336 878.54035c0 0-422.667631 1.404648-458.4072 1.404648s-34.007943-36.882993-34.007943-36.882993 0-582.907589 0-620.705162 31.982516-31.329159 31.982516-31.329159l80.332335 0 302.185518 0 73.831342 0c0 0 38.516286-2.319427 38.516286 31.329159s0.522646 592.087565 0.522646 623.743302C793.904837 877.755882 758.949336 878.54035 758.949336 878.54035z" fill="#272636"></path></g></g></svg>