<?xml version="1.0" standalone="no"?><!DOCTYPE svg PUBLIC "-//W3C//DTD SVG 1.1//EN" "http://www.w3.org/Graphics/SVG/1.1/DTD/svg11.dtd"><svg width="16" height="16" viewBox="0 0 16 16" version="1.1" xmlns="http://www.w3.org/2000/svg" xmlns:xlink="http://www.w3.org/1999/xlink"><defs><style type="text/css"><![CDATA[
@font-face { font-family: yourDictFontAwesome; src: url("chrome-extension://dmckmhkomggmpalekfadjibdcknieljf/lib/fontawesome-webfont.ttf") format("truetype"); font-weight: normal; font-style: normal; }

]]></style></defs><g class="transform-group"><g transform="scale(0.015625, 0.015625)"><path d="M890.581 203.307l-10.667-10.667c-61.269-61.312-168.107-61.312-229.419 0l-96.384 96.384c-59.264-24.32-132.181-13.44-178.859 33.195l-241.877 241.92c-30.635 30.677-47.531 71.424-47.531 114.731s16.896 84.181 47.488 114.688l10.709 10.837c30.677 30.635 71.381 47.488 114.731 47.488 43.307 0 84.053-16.896 114.688-47.573l95.787-95.787c20.224 8.832 42.112 13.696 64.811 13.696 43.392 0 84.053-16.896 114.688-47.488l241.835-241.92c30.677-30.592 47.573-71.339 47.573-114.688 0-43.392-16.853-84.139-47.573-114.816zM555.093 502.059l-93.141 93.184c-9.941-13.269-15.573-29.141-15.573-45.909 0-20.565 8.021-39.893 22.528-54.4l93.099-93.099c22.528 30.037 20.395 72.875-6.912 100.224zM313.216 743.979c-29.099 29.056-79.872 28.928-108.757 0.085l-10.752-10.837c-14.507-14.507-22.528-33.835-22.528-54.315 0-20.565 8.021-39.936 22.528-54.4l241.877-241.92c12.715-12.672 29.141-20.011 46.763-21.76l-73.771 73.771c-30.635 30.635-47.531 71.381-47.531 114.731 0 39.595 14.72 76.672 40.576 106.24l-88.405 88.405zM830.293 372.48l-241.963 241.92c-12.459 12.501-28.971 19.285-46.037 21.035l73.088-73.088c60.544-60.587 62.421-157.269 6.997-220.971l88.491-88.448c14.507-14.507 33.835-22.485 54.357-22.485s39.893 8.021 54.4 22.485l10.667 10.667c14.507 14.592 22.528 33.92 22.528 54.443 0 20.651-7.979 39.936-22.528 54.443z" fill="#272636"></path></g></g></svg>